<svg xmlns="http://www.w3.org/2000/svg" viewBox="0 0 400 400" width="400" height="400">
  <defs>
    <clipPath id="circle-clip">
      <circle cx="200" cy="200" r="198"/>
    </clipPath>
  </defs>
  <circle cx="200" cy="200" r="200" fill="#0a0a14"/>
  <g stroke="#00d4ff" stroke-width="0.6" opacity="0.15" fill="none">
    <line x1="0" y1="60" x2="400" y2="60"/>
    <line x1="0" y1="120" x2="160" y2="120"/>
    <line x1="240" y1="120" x2="400" y2="120"/>
    <line x1="0" y1="340" x2="130" y2="340"/>
    <line x1="270" y1="340" x2="400" y2="340"/>
    <line x1="0" y1="370" x2="400" y2="370"/>
    <line x1="50" y1="0" x2="50" y2="400"/>
    <line x1="100" y1="60" x2="100" y2="120"/>
    <line x1="300" y1="60" x2="300" y2="120"/>
    <line x1="350" y1="0" x2="350" y2="400"/>
    <line x1="130" y1="340" x2="130" y2="400"/>
    <line x1="270" y1="340" x2="270" y2="400"/>
    <circle cx="50" cy="60" r="3" fill="#00d4ff" opacity="0.5"/>
    <circle cx="100" cy="60" r="3" fill="#00d4ff" opacity="0.5"/>
    <circle cx="300" cy="60" r="3" fill="#00d4ff" opacity="0.5"/>
    <circle cx="350" cy="60" r="3" fill="#00d4ff" opacity="0.5"/>
    <circle cx="50" cy="120" r="3" fill="#00d4ff" opacity="0.5"/>
    <circle cx="100" cy="120" r="3" fill="#00d4ff" opacity="0.5"/>
    <circle cx="300" cy="120" r="3" fill="#00d4ff" opacity="0.5"/>
    <circle cx="350" cy="120" r="3" fill="#00d4ff" opacity="0.5"/>
    <circle cx="130" cy="340" r="3" fill="#00d4ff" opacity="0.5"/>
    <circle cx="270" cy="340" r="3" fill="#00d4ff" opacity="0.5"/>
    <circle cx="50" cy="370" r="3" fill="#00d4ff" opacity="0.5"/>
    <circle cx="350" cy="370" r="3" fill="#00d4ff" opacity="0.5"/>
  </g>
  <g font-family="monospace" font-size="10" fill="#00ff41" opacity="0.12">
    <text x="18" y="80">01</text><text x="18" y="95">10</text><text x="18" y="110">11</text>
    <text x="18" y="125">00</text><text x="18" y="140">01</text>
    <text x="370" y="80">10</text><text x="370" y="95">01</text><text x="370" y="110">11</text>
    <text x="370" y="125">00</text><text x="370" y="140">10</text>
    <text x="18" y="300">01</text><text x="18" y="315">11</text>
    <text x="370" y="300">10</text><text x="370" y="315">01</text>
  </g>
  <path d="M 60 400 L 80 290 Q 140 260 200 258 Q 260 260 320 290 L 340 400 Z" fill="#111128"/>
  <path d="M 80 290 Q 140 260 200 258 Q 260 260 320 290" fill="none" stroke="#00d4ff" stroke-width="1.5" opacity="0.7"/>
  <g stroke="#00d4ff" stroke-width="0.8" opacity="0.25" fill="none">
    <line x1="100" y1="310" x2="140" y2="310"/>
    <line x1="140" y1="310" x2="140" y2="330"/>
    <line x1="140" y1="330" x2="160" y2="330"/>
    <line x1="260" y1="310" x2="300" y2="310"/>
    <line x1="260" y1="310" x2="260" y2="330"/>
    <line x1="240" y1="330" x2="260" y2="330"/>
  </g>
  <rect x="183" y="247" width="34" height="30" rx="3" fill="#c8a882"/>
  <path d="M 160 275 L 200 258 L 240 275 L 220 300 L 200 285 L 180 300 Z" fill="#e8e8f0"/>
  <path d="M 160 275 L 200 258 L 240 275" fill="none" stroke="#7c3aed" stroke-width="1.5" opacity="0.8"/>
  <rect x="105" y="295" width="36" height="48" rx="2" fill="#f0f0f8" stroke="#ccd" stroke-width="0.5"/>
  <rect x="107" y="295" width="32" height="6" rx="1" fill="#dde"/>
  <rect x="111" y="285" width="5" height="18" rx="2" fill="#e74c3c"/>
  <rect x="118" y="287" width="5" height="16" rx="2" fill="#3498db"/>
  <rect x="125" y="288" width="5" height="15" rx="2" fill="#27ae60"/>
  <rect x="132" y="289" width="4" height="14" rx="2" fill="#f39c12"/>
  <line x1="113" y1="285" x2="113" y2="296" stroke="#c0392b" stroke-width="0.8"/>
  <line x1="120" y1="287" x2="120" y2="296" stroke="#2980b9" stroke-width="0.8"/>
  <line x1="108" y1="310" x2="139" y2="310" stroke="#99a" stroke-width="0.5"/>
  <line x1="108" y1="316" x2="135" y2="316" stroke="#99a" stroke-width="0.5"/>
  <line x1="108" y1="322" x2="137" y2="322" stroke="#99a" stroke-width="0.5"/>
  <rect x="250" y="308" width="52" height="12" rx="2" fill="#d4a96a" stroke="#b8922a" stroke-width="0.5"/>
  <line x1="265" y1="308" x2="265" y2="320" stroke="#7a5a20" stroke-width="0.5"/>
  <line x1="275" y1="308" x2="275" y2="320" stroke="#7a5a20" stroke-width="0.5"/>
  <line x1="283" y1="308" x2="283" y2="320" stroke="#7a5a20" stroke-width="0.5"/>
  <line x1="290" y1="308" x2="290" y2="320" stroke="#7a5a20" stroke-width="0.5"/>
  <line x1="296" y1="308" x2="296" y2="320" stroke="#7a5a20" stroke-width="0.5"/>
  <rect x="272" y="306" width="14" height="16" rx="1" fill="none" stroke="#00d4ff" stroke-width="1" opacity="0.7"/>
  <ellipse cx="200" cy="178" rx="72" ry="80" fill="#c8a882"/>
  <path d="M 128 160 Q 130 95 200 90 Q 270 95 272 160 Q 260 120 200 118 Q 140 120 128 160 Z" fill="#1a1018"/>
  <path d="M 128 160 Q 128 145 133 138" fill="none" stroke="#1a1018" stroke-width="8" stroke-linecap="round"/>
  <path d="M 272 160 Q 272 145 267 138" fill="none" stroke="#1a1018" stroke-width="8" stroke-linecap="round"/>
  <ellipse cx="130" cy="185" rx="10" ry="14" fill="#c0a07a"/>
  <ellipse cx="270" cy="185" rx="10" ry="14" fill="#c0a07a"/>
  <rect x="140" y="172" width="46" height="30" rx="4" fill="#0d0d1a" stroke="#00d4ff" stroke-width="2.5"/>
  <rect x="214" y="172" width="46" height="30" rx="4" fill="#0d0d1a" stroke="#00d4ff" stroke-width="2.5"/>
  <line x1="186" y1="187" x2="214" y2="187" stroke="#00d4ff" stroke-width="2.5"/>
  <line x1="130" y1="187" x2="140" y2="187" stroke="#00d4ff" stroke-width="2.5"/>
  <line x1="260" y1="187" x2="270" y2="187" stroke="#00d4ff" stroke-width="2.5"/>
  <g stroke="#00d4ff" stroke-width="0.7" opacity="0.5">
    <line x1="148" y1="178" x2="148" y2="196"/>
    <line x1="156" y1="176" x2="156" y2="198"/>
    <line x1="148" y1="184" x2="183" y2="184"/>
    <line x1="148" y1="190" x2="183" y2="190"/>
    <line x1="218" y1="178" x2="218" y2="196"/>
    <line x1="226" y1="176" x2="226" y2="198"/>
    <line x1="218" y1="184" x2="256" y2="184"/>
    <line x1="218" y1="190" x2="256" y2="190"/>
  </g>
  <rect x="141" y="173" width="44" height="28" rx="3" fill="#00d4ff" opacity="0.08"/>
  <rect x="215" y="173" width="44" height="28" rx="3" fill="#00d4ff" opacity="0.08"/>
  <path d="M 196 200 Q 192 215 196 220 Q 200 222 204 220 Q 208 215 204 200" fill="none" stroke="#a88060" stroke-width="1.5"/>
  <path d="M 185 235 Q 200 245 215 237" fill="none" stroke="#8b6045" stroke-width="2" stroke-linecap="round"/>
  <path d="M 142 167 Q 163 160 183 165" fill="none" stroke="#1a1018" stroke-width="3" stroke-linecap="round"/>
  <path d="M 217 165 Q 237 160 258 167" fill="none" stroke="#1a1018" stroke-width="3" stroke-linecap="round"/>
  <circle cx="200" cy="200" r="196" fill="none" stroke="#00d4ff" stroke-width="2" opacity="0.35"/>
  <circle cx="200" cy="200" r="192" fill="none" stroke="#7c3aed" stroke-width="0.8" opacity="0.4"/>
</svg>
