<svg xmlns="http://www.w3.org/2000/svg" viewBox="0 0 100 100">
  <!-- Shield -->
  <path d="M50 5 L90 20 L90 55 C90 78 72 93 50 98 C28 93 10 78 10 55 L10 20 Z" fill="#1a2b4a"/>
  <path d="M50 5 L90 20 L90 55 C90 78 72 93 50 98 C28 93 10 78 10 55 L10 20 Z" fill="none" stroke="#4a90d9" stroke-width="3"/>
  <!-- Lock body -->
  <rect x="33" y="52" width="34" height="26" rx="4" fill="white" opacity="0.95"/>
  <!-- Lock shackle -->
  <path d="M38 52 L38 40 C38 28 62 28 62 40 L62 52" fill="none" stroke="white" stroke-width="6" stroke-linecap="round"/>
  <!-- Keyhole -->
  <circle cx="50" cy="64" r="5" fill="#1a2b4a"/>
  <rect x="47.5" y="64" width="5" height="8" fill="#1a2b4a"/>
</svg>
